<?xml version="1.0" encoding="UTF-8"?>
<svg id="content" xmlns="http://www.w3.org/2000/svg" viewBox="0 0 48 47.72">
  <defs>
    <style>
      .cls-1 {
        fill: linen;
      }

      .cls-1, .cls-2 {
        stroke-width: 0px;
      }

      .cls-2 {
        fill: #9b9691;
      }
    </style>
  </defs>
  <path class="cls-2" d="M34.94,34.84h-15.87c-3.31,0-6-2.69-6-6v-15.87h15.87c3.31,0,6,2.69,6,6v15.87Z"/>
  <path class="cls-2" d="M31.44,9.28c4.41,0,8,3.59,8,8v21.26h-22.88c-4.41,0-8-3.59-8-8V9.28h22.88M31.44,5.28H4.56v25.26c0,6.63,5.37,12,12,12h26.88v-25.26c0-6.63-5.37-12-12-12h0Z"/>
  <path class="cls-1" d="M31.44,8.47c4.41,0,8,3.59,8,8v21.26h-22.88c-4.41,0-8-3.59-8-8V8.47h22.88M31.44,4.47H4.56v25.26c0,6.63,5.37,12,12,12h26.88v-25.26c0-6.63-5.37-12-12-12h0Z"/>
  <path class="cls-1" d="M34.94,34.11h-15.87c-3.31,0-6-2.69-6-6v-15.14h15.87c3.31,0,6,2.69,6,6v15.14Z"/>
</svg>