<?xml version="1.0" encoding="UTF-8"?>
<svg id="content" xmlns="http://www.w3.org/2000/svg" viewBox="0 0 48 47.72">
  <defs>
    <style>
      .cls-1 {
        fill: #41403f;
        stroke-width: 0px;
      }
    </style>
  </defs>
  <path class="cls-1" d="M38.28,9.31l-7.94,2.13c-.72.19-.97,1.1-.44,1.63l1.49,1.49-5.63,5.63-4.76,4.83-6.34,6.34-1.49-1.49c-.53-.53-1.43-.29-1.63.44l-2.13,7.94c-.19.72.47,1.39,1.19,1.19l7.94-2.13c.72-.19.97-1.1.44-1.63l-1.49-1.49,5.63-5.63,4.76-4.83,6.34-6.34,1.49,1.49c.53.53,1.43.29,1.63-.44l2.13-7.94c.19-.72-.47-1.39-1.19-1.19Z"/>
</svg>