<?xml version="1.0" encoding="UTF-8"?>
<svg id="content" xmlns="http://www.w3.org/2000/svg" viewBox="0 0 48 47.72">
  <defs>
    <style>
      .cls-1 {
        fill: linen;
      }

      .cls-1, .cls-2 {
        stroke-width: 0px;
      }

      .cls-2 {
        fill: #9b9691;
      }
    </style>
  </defs>
  <g>
    <path class="cls-2" d="M33.96,5.93c-2.19-1.91-5.14-2.96-8.84-3.16-.45-.02-.9-.04-1.37-.04-2.68,0-5.03.44-7.08,1.33s-3.63,2.18-4.78,3.87c-.76,1.13-1.26,2.41-1.5,3.85-.2,1.19.73,2.28,1.94,2.3l6.28.13c.02-1.56.53-2.73,1.54-3.52s2.21-1.17,3.62-1.17c1.68,0,2.98.47,3.91,1.42s1.39,2.26,1.39,3.94c0,1-.18,1.96-.53,2.9s-.86,1.85-1.52,2.72-1.5,1.73-2.52,2.55c-1.17.92-2.13,1.74-2.87,2.46s-1.31,1.46-1.71,2.2-.69,1.6-.86,2.56c-.08.43-.14.91-.18,1.44-.1,1.16.83,2.15,2,2.15h4.48s2,0,2,0c0-1.09.06-2.02.19-2.77s.38-1.42.76-1.99.94-1.18,1.68-1.8c1.5-1.27,2.83-2.55,3.97-3.84s2.04-2.66,2.7-4.1.98-3.02.98-4.72c0-3.67-1.23-6.58-3.68-8.72Z"/>
    <path class="cls-2" d="M25.35,38.5h-6.55v5.5c0,1.1.9,2,2,2h6.55v-5.5c0-1.1-.9-2-2-2Z"/>
  </g>
  <path class="cls-1" d="M23.75,1.72c.47,0,.92.02,1.37.04-.42-.03-.88-.04-1.37-.04Z"/>
  <g>
    <path class="cls-1" d="M33.96,4.93c-2.19-1.91-5.14-2.96-8.84-3.16-.45-.02-.9-.04-1.37-.04-2.68,0-5.03.44-7.08,1.33s-3.63,2.18-4.78,3.87c-.76,1.13-1.26,2.41-1.5,3.85-.2,1.19.73,2.28,1.94,2.3l6.28.13c.02-1.56.53-2.73,1.54-3.52s2.21-1.17,3.62-1.17c1.68,0,2.98.47,3.91,1.42s1.39,2.26,1.39,3.94c0,1-.18,1.96-.53,2.9s-.86,1.85-1.52,2.72-1.5,1.73-2.52,2.55c-1.17.92-2.13,1.74-2.87,2.46s-1.31,1.46-1.71,2.2-.69,1.6-.86,2.56c-.08.43-.14.91-.18,1.44-.1,1.16.83,2.15,2,2.15h4.48s2,0,2,0c0-1.09.06-2.02.19-2.77s.38-1.42.76-1.99.94-1.18,1.68-1.8c1.5-1.27,2.83-2.55,3.97-3.84s2.04-2.66,2.7-4.1.98-3.02.98-4.72c0-3.67-1.23-6.58-3.68-8.72Z"/>
    <path class="cls-1" d="M25.35,37.5h-6.55v5.5c0,1.1.9,2,2,2h6.55v-5.5c0-1.1-.9-2-2-2Z"/>
  </g>
</svg>