<?xml version="1.0" encoding="UTF-8" standalone="no"?>
<svg
   id="content"
   viewBox="0 0 48 47.72"
   version="1.1"
   sodipodi:docname="hand.gemacht WebApp ar rotate arrows rotate.svg"
   inkscape:version="1.1.1 (3bf5ae0d25, 2021-09-20)"
   xmlns:inkscape="http://www.inkscape.org/namespaces/inkscape"
   xmlns:sodipodi="http://sodipodi.sourceforge.net/DTD/sodipodi-0.dtd"
   xmlns="http://www.w3.org/2000/svg"
   xmlns:svg="http://www.w3.org/2000/svg">
  <sodipodi:namedview
     id="namedview19"
     pagecolor="#ffffff"
     bordercolor="#666666"
     borderopacity="1.0"
     inkscape:pageshadow="2"
     inkscape:pageopacity="0.0"
     inkscape:pagecheckerboard="0"
     showgrid="false"
     inkscape:zoom="12.866722"
     inkscape:cx="23.97658"
     inkscape:cy="23.860001"
     inkscape:window-width="2560"
     inkscape:window-height="1370"
     inkscape:window-x="-2566"
     inkscape:window-y="191"
     inkscape:window-maximized="1"
     inkscape:current-layer="content" />
  <defs
     id="defs4">
    <style
       id="style2">
      .cls-1 {
        fill: #9b9691;
        stroke-width: 0px;
      }
    </style>
  </defs>
  <g
     id="g10"
     transform="rotate(-90,25.557057,23.044038)">
    <path
       class="cls-1"
       d="M 17.7,44.21 C 9.44,41.51 3.72,33.66 3.72,24.94 h 2 c 0,8.02 5.36,15.22 13.05,17.51 l -0.43,1.42 c -0.08,0.27 -0.37,0.43 -0.64,0.34 z"
       id="path6" />
    <path
       class="cls-1"
       d="m 1.56,25.24 2.72,-4.72 c 0.19,-0.33 0.67,-0.33 0.87,0 l 2.72,4.72 c 0.19,0.33 -0.05,0.75 -0.43,0.75 H 1.99 c -0.38,0 -0.63,-0.42 -0.43,-0.75 z"
       id="path8" />
  </g>
  <g
     id="g16"
     transform="rotate(-90,24.955345,21.984507)">
    <path
       class="cls-1"
       d="m 29.81,44.37 -0.43,-1.45 c -0.08,-0.26 0.07,-0.53 0.33,-0.61 7.43,-2.44 12.58,-9.51 12.58,-17.37 h 2 c 0,8.89 -5.95,16.88 -14.47,19.43 z"
       id="path12" />
    <path
       class="cls-1"
       d="m 46.44,25.24 -2.72,-4.72 c -0.19,-0.33 -0.67,-0.33 -0.87,0 l -2.72,4.72 c -0.19,0.33 0.05,0.75 0.43,0.75 h 5.45 c 0.38,0 0.63,-0.42 0.43,-0.75 z"
       id="path14" />
  </g>
</svg>
