<?xml version="1.0" encoding="UTF-8"?>
<svg id="content" xmlns="http://www.w3.org/2000/svg" viewBox="0 0 47.44 47.44">
  <defs>
    <style>
      .cls-1 {
        fill: none;
      }

      .cls-1, .cls-2 {
        stroke: #41403f;
        stroke-linecap: round;
        stroke-linejoin: round;
        stroke-width: 1.36px;
      }

      .cls-2 {
        fill: linen;
      }
    </style>
  </defs>
  <g>
    <path class="cls-2" d="m34.17,31.11l-12.75.28c-1.5-.31-2.72-1.78-2.72-3.28V10.18h12.75c1.5,0,2.72,1.22,2.72,2.72v18.2Z"/>
    <path class="cls-2" d="m31.29,16.14v18.2l-11.86-2.01c-1.4-.58-2.53-2.27-2.53-3.77V10.64l11.86,2.3c1.4.27,2.53,1.71,2.53,3.21Z"/>
    <path class="cls-2" d="m28.41,19.38v18.2l-10.98-4.31c-1.3-.85-2.35-2.76-2.35-4.26V11.09l10.98,4.59c1.3.54,2.35,2.2,2.35,3.7Z"/>
    <path class="cls-2" d="m25.52,40.83l-10.1-6.61c-1.19-1.12-2.16-3.25-2.16-4.76V11.54l10.1,6.89c1.19.81,2.16,2.69,2.16,4.19v18.2Z"/>
  </g>
  <line class="cls-1" x1="13.26" y1="11.54" x2="18.71" y2="10.18"/>
</svg>