<?xml version="1.0" encoding="UTF-8"?>
<svg id="content" xmlns="http://www.w3.org/2000/svg" viewBox="0 0 48 47.72">
  <defs>
    <style>
      .cls-1 {
        fill: #41403f;
      }

      .cls-1, .cls-2 {
        stroke-width: 0px;
      }

      .cls-2 {
        fill: linen;
      }

      .cls-3 {
        fill: none;
        stroke: linen;
        stroke-linecap: round;
        stroke-linejoin: round;
        stroke-width: 1.31px;
      }
    </style>
  </defs>
  <circle class="cls-1" cx="24" cy="24" r="23.72"/>
  <g>
    <path class="cls-3" d="m36.25,39.25l-14.63.88c-1.58.1-3.16-1.11-3.52-2.7l-6.36-27.98,14.63-.88c1.58-.1,3.16,1.11,3.52,2.7l6.36,27.98Z"/>
    <g>
      <path class="cls-2" d="m17.87,27.27l-.19-.82.47-.1.82-6.04,1.39-.08,3.49,5.78.5.04.19.82-2.31.14-.19-.82.45-.11-.51-.92-2.39.14-.09.95.49.06.19.82-2.31.14Zm1.82-2.99l1.74-.1-1.32-2.28-.11-.2h-.03s-.02.23-.02.23l-.26,2.36Z"/>
      <path class="cls-2" d="m24.99,26.84l-.19-.82.69-.18-1.11-4.88-.75-.1-.19-.82,3.22-.19c.52-.03.99.02,1.4.16s.75.35,1.02.64c.27.29.45.65.55,1.07.09.4.07.76-.06,1.09s-.35.59-.66.79-.7.32-1.16.35l-1.28.08.39,1.73.76.1.19.82-2.81.17Zm1.24-3.86l1.11-.07c.39-.02.67-.12.82-.3.16-.18.2-.43.13-.74s-.22-.56-.46-.74-.54-.25-.92-.23l-1.13.07.46,2.01Zm3.13,3.6l-1.81-2.87,1.16-.38,1.51,2.23.61.1.19.82-1.65.1Z"/>
    </g>
  </g>
</svg>