<?xml version="1.0" encoding="UTF-8"?>
<svg id="content" xmlns="http://www.w3.org/2000/svg" viewBox="0 0 48 47.72">
  <defs>
    <style>
      .cls-1 {
        fill: linen;
        stroke-width: 0px;
      }
    </style>
  </defs>
  <g>
    <path class="cls-1" d="M29.76,19.95l-1.97-1.97c-.36-.36-.36-.95,0-1.31l5.75-5.75c.36-.36.95-.36,1.31,0l1.32,1.32c.36.36.36.95,0,1.31l-6.4,6.4Z"/>
    <path class="cls-1" d="M38.52,15.05l1.97-7.36c.18-.67-.43-1.28-1.1-1.1l-7.36,1.97c-.67.18-.89,1.02-.4,1.51l5.39,5.39c.49.49,1.33.27,1.51-.4Z"/>
  </g>
  <path class="cls-1" d="M28.85,37.84h-11.64c-4.14,0-7.5-3.36-7.5-7.5v-11.64h11.64c4.14,0,7.5,3.36,7.5,7.5v11.64ZM14.71,23.7v6.64c0,1.38,1.12,2.5,2.5,2.5h6.64v-6.64c0-1.38-1.12-2.5-2.5-2.5h-6.64Z"/>
</svg>