<?xml version="1.0" encoding="UTF-8"?>
<svg id="content" xmlns="http://www.w3.org/2000/svg" viewBox="0 0 48 47.72">
  <defs>
    <style>
      .cls-1 {
        fill: linen;
      }

      .cls-1, .cls-2, .cls-3 {
        stroke-width: 0px;
      }

      .cls-2 {
        fill: none;
      }

      .cls-3 {
        fill: #9b9691;
      }
    </style>
  </defs>
  <path class="cls-2" d="M19,16.75h-7.94v14c0,1.38,1.12,2.5,2.5,2.5h7.94v-14c0-1.38-1.12-2.5-2.5-2.5Z"/>
  <path class="cls-2" d="M37.79,23.65h-11.31c-.52,0-.96.31-1.16.76.19.45.64.76,1.16.76h11.31c.52,0,.96-.31,1.16-.76-.19-.45-.64-.76-1.16-.76Z"/>
  <path class="cls-2" d="M37.79,17.96h-11.31c-.52,0-.96.31-1.16.76.19.45.64.76,1.16.76h11.31c.52,0,.96-.31,1.16-.76-.19-.45-.64-.76-1.16-.76Z"/>
  <path class="cls-2" d="M37.79,29.35h-11.31c-.52,0-.96.31-1.16.76.19.45.64.76,1.16.76h11.31c.52,0,.96-.31,1.16-.76-.19-.45-.64-.76-1.16-.76Z"/>
  <path class="cls-3" d="M37.79,28.35h-11.31c-.7,0-1.26.56-1.26,1.26,0,.18.04.35.11.5.19-.45.64-.76,1.16-.76h11.31c.52,0,.96.31,1.16.76.07-.15.11-.32.11-.5,0-.7-.56-1.26-1.26-1.26Z"/>
  <path class="cls-3" d="M34.44,38.25H13.57c-4.14,0-7.5-3.36-7.5-7.5v1c0,4.14,3.36,7.5,7.5,7.5h20.87c4.14,0,7.5-3.36,7.5-7.5v-1c0,4.14-3.36,7.5-7.5,7.5Z"/>
  <path class="cls-3" d="M37.79,22.65h-11.31c-.7,0-1.26.56-1.26,1.26,0,.18.04.35.11.5.19-.45.64-.76,1.16-.76h11.31c.52,0,.96.31,1.16.76.07-.15.11-.32.11-.5,0-.7-.56-1.26-1.26-1.26Z"/>
  <path class="cls-3" d="M19,15.75h-7.94v1h7.94c1.38,0,2.5,1.12,2.5,2.5v-1c0-1.38-1.12-2.5-2.5-2.5Z"/>
  <path class="cls-3" d="M25.22,18.22c0,.18.04.35.11.5.19-.45.64-.76,1.16-.76h11.31c.52,0,.96.31,1.16.76.07-.15.11-.32.11-.5,0-.7-.56-1.26-1.26-1.26h-11.31c-.7,0-1.26.56-1.26,1.26Z"/>
  <path class="cls-1" d="M29,10.75c-1.92,0-3.67.73-5,1.93-1.33-1.19-3.08-1.93-5-1.93H6.07v20c0,4.14,3.36,7.5,7.5,7.5h20.87c4.14,0,7.5-3.36,7.5-7.5V10.75h-12.94ZM21.5,19.25v14h-7.94c-1.38,0-2.5-1.12-2.5-2.5v-15h7.94c1.38,0,2.5,1.12,2.5,2.5v1ZM38.94,30.11c-.19.45-.64.76-1.16.76h-11.31c-.52,0-.96-.31-1.16-.76-.07-.15-.11-.32-.11-.5,0-.7.56-1.26,1.26-1.26h11.31c.7,0,1.26.56,1.26,1.26,0,.18-.04.35-.11.5ZM38.94,24.41c-.19.45-.64.76-1.16.76h-11.31c-.52,0-.96-.31-1.16-.76-.07-.15-.11-.32-.11-.5,0-.7.56-1.26,1.26-1.26h11.31c.7,0,1.26.56,1.26,1.26,0,.18-.04.35-.11.5ZM38.94,18.72c-.19.45-.64.76-1.16.76h-11.31c-.52,0-.96-.31-1.16-.76-.07-.15-.11-.32-.11-.5,0-.7.56-1.26,1.26-1.26h11.31c.7,0,1.26.56,1.26,1.26,0,.18-.04.35-.11.5Z"/>
</svg>