<?xml version="1.0" encoding="UTF-8"?>
<svg id="content" xmlns="http://www.w3.org/2000/svg" viewBox="0 0 48 47.72">
  <defs>
    <style>
      .cls-1 {
        fill: linen;
      }

      .cls-1, .cls-2 {
        stroke-width: 0px;
      }

      .cls-2 {
        fill: #9b9691;
      }
    </style>
  </defs>
  <path class="cls-2" d="M21.86,39.25h-8.29c-4.14,0-7.5-3.36-7.5-7.5V11.75h12.94c2.06,0,3.92.83,5.28,2.17l-2.42,25.33M11.07,16.75v15c0,1.38,1.12,2.5,2.5,2.5h7.94v-15c0-1.38-1.12-2.5-2.5-2.5h-7.94Z"/>
  <path class="cls-2" d="M29,11.75c-4.14,0-7.5,3.36-7.5,7.5v20h12.94c4.14,0,7.5-3.36,7.5-7.5V11.75h-12.94ZM37.79,31.87h-11.31c-.7,0-1.26-.56-1.26-1.26s.56-1.26,1.26-1.26h11.31c.7,0,1.26.56,1.26,1.26s-.56,1.26-1.26,1.26ZM37.79,26.17h-11.31c-.7,0-1.26-.56-1.26-1.26s.56-1.26,1.26-1.26h11.31c.7,0,1.26.56,1.26,1.26s-.56,1.26-1.26,1.26ZM37.79,20.48h-11.31c-.7,0-1.26-.56-1.26-1.26s.56-1.26,1.26-1.26h11.31c.7,0,1.26.56,1.26,1.26s-.56,1.26-1.26,1.26Z"/>
  <path class="cls-1" d="M21.86,38.25h-8.29c-4.14,0-7.5-3.36-7.5-7.5V10.75h12.94c2.06,0,3.92.83,5.28,2.17l-2.42,25.33M11.07,15.75v15c0,1.38,1.12,2.5,2.5,2.5h7.94v-15c0-1.38-1.12-2.5-2.5-2.5h-7.94Z"/>
  <path class="cls-1" d="M29,10.75c-4.14,0-7.5,3.36-7.5,7.5v20h12.94c4.14,0,7.5-3.36,7.5-7.5V10.75h-12.94ZM37.79,30.87h-11.31c-.7,0-1.26-.56-1.26-1.26s.56-1.26,1.26-1.26h11.31c.7,0,1.26.56,1.26,1.26s-.56,1.26-1.26,1.26ZM37.79,25.17h-11.31c-.7,0-1.26-.56-1.26-1.26s.56-1.26,1.26-1.26h11.31c.7,0,1.26.56,1.26,1.26s-.56,1.26-1.26,1.26ZM37.79,19.48h-11.31c-.7,0-1.26-.56-1.26-1.26s.56-1.26,1.26-1.26h11.31c.7,0,1.26.56,1.26,1.26s-.56,1.26-1.26,1.26Z"/>
</svg>