<?xml version="1.0" encoding="UTF-8"?>
<svg id="content" xmlns="http://www.w3.org/2000/svg" viewBox="0 0 48 47.72">
  <defs>
    <style>
      .cls-1 {
        fill: linen;
      }

      .cls-1, .cls-2, .cls-3 {
        stroke-width: 0px;
      }

      .cls-2 {
        fill: none;
      }

      .cls-3 {
        fill: #9b9691;
      }
    </style>
  </defs>
  <path class="cls-2" d="M31.44,9.28H8.56v20.45c0,4.41,3.59,8,8,8h22.88v-20.45c0-4.41-3.59-8-8-8Z"/>
  <path class="cls-3" d="M4.56,29.73v.81c0,6.63,5.37,12,12,12h26.88v-.81h-26.88c-6.63,0-12-5.37-12-12Z"/>
  <path class="cls-3" d="M31.44,8.47H8.56v.81h22.88c4.41,0,8,3.59,8,8v-.81c0-4.41-3.59-8-8-8Z"/>
  <path class="cls-1" d="M31.44,4.47H4.56v25.26c0,6.63,5.37,12,12,12h26.88v-25.26c0-6.63-5.37-12-12-12ZM39.44,17.28v20.45h-22.88c-4.41,0-8-3.59-8-8V8.47h22.88c4.41,0,8,3.59,8,8v.81Z"/>
  <path class="cls-3" d="M13.07,28.11v.73c0,3.31,2.69,6,6,6h15.87v-.73h-15.87c-3.31,0-6-2.69-6-6Z"/>
  <path class="cls-1" d="M28.94,12.97h-15.87v15.14c0,3.31,2.69,6,6,6h15.87v-15.14c0-3.31-2.69-6-6-6Z"/>
</svg>