<?xml version="1.0" encoding="UTF-8"?>
<svg id="content" xmlns="http://www.w3.org/2000/svg" viewBox="0 0 48 47.72">
  <defs>
    <style>
      .cls-1 {
        fill: #41403f;
        stroke-width: 0px;
      }
    </style>
  </defs>
  <path class="cls-1" d="M30.11,11.79c-.61-1.76-2.27-3.04-4.23-3.04h-14.29v3.04h-1.09c-2.49,0-4.5,2.01-4.5,4.5v22.5h6.79c.82.9,1.99,1.47,3.3,1.47h14.29v-1.47h7.12c2.49,0,4.5-2.01,4.5-4.5V11.79h-11.89ZM10,16.29c0-.28.22-.5.5-.5h1.09v19h-1.59v-18.5ZM18.68,25.75h-2.06l-.19.69.42.08v.9h-2.39v-.9l.45-.07,1.91-5.43h1.67l1.91,5.43.45.07v.9h-2.39v-.9l.42-.08-.19-.69ZM27.04,27.43h-1.86l-.8-2.31h-1.05s0,1.27,0,1.27l.66.14v.9h-2.87v-.9l.66-.14v-4.31l-.66-.14v-.91h3.15c.51,0,.95.08,1.32.24s.66.39.86.69c.2.3.3.65.3,1.06,0,.38-.1.72-.3,1.05-.17.27-.41.49-.69.67l.67,1.65.61.15v.9ZM38,34.29c0,.28-.22.5-.5.5h-7.12V15.79h7.62v18.5Z"/>
  <path class="cls-1" d="M24.27,22.21h-.94v1.72h.96c.3,0,.53-.07.69-.21s.24-.34.24-.6-.08-.49-.25-.66c-.16-.17-.4-.25-.7-.25Z"/>
  <polygon class="cls-1" points="17.65 22.51 17.63 22.51 17.55 22.76 16.95 24.67 18.35 24.67 17.72 22.73 17.65 22.51"/>
</svg>