<?xml version="1.0" encoding="UTF-8"?>
<svg id="content" xmlns="http://www.w3.org/2000/svg" viewBox="0 0 48 47.72">
  <defs>
    <style>
      .cls-1 {
        fill: #9b9691;
        stroke-width: 0px;
      }
    </style>
  </defs>
  <g>
    <path class="cls-1" d="M17.7,44.21c-8.26-2.7-13.98-10.55-13.98-19.27h2c0,8.02,5.36,15.22,13.05,17.51l-.43,1.42c-.08.27-.37.43-.64.34Z"/>
    <path class="cls-1" d="M1.56,25.24l2.72-4.72c.19-.33.67-.33.87,0l2.72,4.72c.19.33-.05.75-.43.75H1.99c-.38,0-.63-.42-.43-.75Z"/>
  </g>
  <g>
    <path class="cls-1" d="M29.81,44.37l-.43-1.45c-.08-.26.07-.53.33-.61,7.43-2.44,12.58-9.51,12.58-17.37h2c0,8.89-5.95,16.88-14.47,19.43Z"/>
    <path class="cls-1" d="M46.44,25.24l-2.72-4.72c-.19-.33-.67-.33-.87,0l-2.72,4.72c-.19.33.05.75.43.75h5.45c.38,0,.63-.42.43-.75Z"/>
  </g>
</svg>